<?xml version="1.0" encoding="UTF-8" standalone="no"?>
<!-- Created with Inkscape (http://www.inkscape.org/) -->

<svg
   width="1200"
   height="628"
   viewBox="0 0 317.49999 166.15834"
   version="1.1"
   id="svg1541"
   inkscape:version="1.1.1 (3bf5ae0d25, 2021-09-20)"
   sodipodi:docname="sa.svg"
   xmlns:inkscape="http://www.inkscape.org/namespaces/inkscape"
   xmlns:sodipodi="http://sodipodi.sourceforge.net/DTD/sodipodi-0.dtd"
   xmlns:xlink="http://www.w3.org/1999/xlink"
   xmlns="http://www.w3.org/2000/svg"
   xmlns:svg="http://www.w3.org/2000/svg">
  <sodipodi:namedview
     id="namedview1543"
     pagecolor="#ffffff"
     bordercolor="#666666"
     borderopacity="1.0"
     inkscape:pageshadow="2"
     inkscape:pageopacity="0.0"
     inkscape:pagecheckerboard="0"
     inkscape:document-units="px"
     showgrid="false"
     inkscape:zoom="0.45166246"
     inkscape:cx="689.67432"
     inkscape:cy="479.34026"
     inkscape:window-width="1360"
     inkscape:window-height="705"
     inkscape:window-x="-8"
     inkscape:window-y="-8"
     inkscape:window-maximized="1"
     inkscape:current-layer="layer1"
     units="px"
     width="1200px" />
  <defs
     id="defs1538" />
  <g
     inkscape:label="Layer 1"
     inkscape:groupmode="layer"
     id="layer1">
    <image
       width="317.5"
       height="166.15834"
       preserveAspectRatio="none"
       xlink:href="../desain/cucibos/mukena-sajadah-gratis/fb.png"
       id="image127"
       x="0"
       y="0" />
    <text
       xml:space="preserve"
       style="font-style:normal;font-weight:normal;font-size:10.6731px;line-height:1.25;font-family:sans-serif;fill:#01b683;fill-opacity:1;stroke:none;stroke-width:0.265378"
       x="16.683552"
       y="12.205884"
       id="text3848-3"
       transform="scale(0.98444557,1.0158002)"><tspan
         sodipodi:role="line"
         id="tspan3846-9"
         style="font-style:normal;font-variant:normal;font-weight:normal;font-stretch:normal;font-size:10.6731px;font-family:'Baloo Tamma 2';-inkscape-font-specification:'Baloo Tamma 2, ';fill:#01b683;fill-opacity:1;stroke-width:0.265378"
         x="16.683552"
         y="12.205884"><tspan
   style="fill:#000000"
   id="tspan6513">085655668770</tspan> (Febri)</tspan></text>
    <path
       id="path6"
       class="st0"
       d="m 8.9991056,3.8663231 c -3.0891712,0 -5.5942997,2.50513 -5.5942997,5.5943085 0,3.0891594 2.5051285,5.5942994 5.5942997,5.5942994 3.0891734,0 5.5943034,-2.50514 5.5943034,-5.5942994 0,-3.0891785 -2.50513,-5.5943085 -5.5943034,-5.5943085 z m 0.01568,1.91103 c 0.9834757,7e-4 1.9076564,0.38375 2.6013484,1.0785497 0.694813,0.6948197 1.076341,1.6189991 1.075222,2.6013588 -0.0011,2.0273694 -1.650315,3.6765894 -3.6765704,3.6765894 h -0.0011 c -0.6153714,0 -1.2195581,-0.15439 -1.7566088,-0.44754 l -1.9490701,0.51132 0.5213867,-1.90544 c -0.3222337,-0.55719 -0.4911627,-1.19046 -0.4911627,-1.8382694 0,-2.0273791 1.6503121,-3.6765685 3.6765699,-3.6765685 z m 0.0022,0.62097 c -1.6861218,0 -3.0567122,1.3705994 -3.0578322,3.0555985 0,0.5784494 0.162224,1.1401094 0.4676727,1.6268194 l 0.07272,0.11522 -0.3088007,1.12784 1.1569034,-0.30322 0.1118857,0.066 c 0.4688017,0.2786 1.0069744,0.42631 1.5552181,0.42631 h 0.0011 c 1.6838834,0 3.0556034,-1.37064 3.0556034,-3.0567494 C 12.072556,8.6404919 11.754813,7.8718425 11.177482,7.2945228 10.600149,6.7171731 9.8337333,6.3983031 9.0169656,6.3983031 Z M 7.7135155,7.7543625 c 0.06042,0 0.121967,0.002 0.1756717,0.004 0.05706,0.004 0.132027,-0.0212 0.20699,0.1577697 0.07609,0.1846 0.259563,0.6366197 0.283059,0.6824897 0.0235,0.0458 0.03805,0.0996 0.0078,0.16112 -0.03021,0.0616 -0.04589,0.0996 -0.09175,0.15327 -0.04588,0.0537 -0.09621,0.1197397 -0.137608,0.1611297 -0.04588,0.0458 -0.094,0.0962 -0.04029,0.18796 0.05371,0.0918 0.23833,0.3927097 0.5113317,0.6366297 0.3502047,0.3132797 0.6467007,0.4106297 0.7384487,0.4564997 0.09175,0.0458 0.1454377,0.0381 0.1991437,-0.0235 0.0537,-0.0616 0.229366,-0.26855 0.290903,-0.3602797 0.06154,-0.0918 0.123077,-0.0761 0.2069887,-0.0458 0.08392,0.0302 0.535953,0.2528597 0.627698,0.2987197 0.09175,0.047 0.153275,0.0694 0.175655,0.10743 0.02238,0.0381 0.02236,0.22154 -0.05371,0.43636 -0.07609,0.21371 -0.443052,0.4095 -0.619832,0.43635 -0.157758,0.0235 -0.3580487,0.0335 -0.5784627,-0.0369 -0.133146,-0.0425 -0.3043177,-0.0985 -0.5236147,-0.19357 C 8.1699972,10.575721 7.5680435,9.6481913 7.5221695,9.5866413 7.4762895,9.5262413 7.1473498,9.0887816 7.1473498,8.6367619 c 0,-0.4520197 0.2371907,-0.6746897 0.3211057,-0.7664294 0.08391,-0.0917 0.183497,-0.11526 0.245035,-0.11526 z"
       style="fill:#01b683;fill-opacity:1;stroke-width:0.0111886" />
  </g>
</svg>
