<?xml version="1.0" encoding="UTF-8" standalone="no"?>
<!-- Created with Inkscape (http://www.inkscape.org/) -->

<svg
   width="1080"
   height="1080"
   viewBox="0 0 285.74999 285.75001"
   version="1.1"
   id="svg1541"
   inkscape:version="1.1.1 (3bf5ae0d25, 2021-09-20)"
   sodipodi:docname="ig.svg"
   xmlns:inkscape="http://www.inkscape.org/namespaces/inkscape"
   xmlns:sodipodi="http://sodipodi.sourceforge.net/DTD/sodipodi-0.dtd"
   xmlns:xlink="http://www.w3.org/1999/xlink"
   xmlns="http://www.w3.org/2000/svg"
   xmlns:svg="http://www.w3.org/2000/svg">
  <sodipodi:namedview
     id="namedview1543"
     pagecolor="#ffffff"
     bordercolor="#666666"
     borderopacity="1.0"
     inkscape:pageshadow="2"
     inkscape:pageopacity="0.0"
     inkscape:pagecheckerboard="0"
     inkscape:document-units="px"
     showgrid="false"
     inkscape:zoom="0.45166246"
     inkscape:cx="689.67432"
     inkscape:cy="479.34026"
     inkscape:window-width="1360"
     inkscape:window-height="705"
     inkscape:window-x="-8"
     inkscape:window-y="-8"
     inkscape:window-maximized="1"
     inkscape:current-layer="layer1"
     units="px"
     width="1080px" />
  <defs
     id="defs1538" />
  <g
     inkscape:label="Layer 1"
     inkscape:groupmode="layer"
     id="layer1">
    <image
       width="285.75"
       height="285.75"
       preserveAspectRatio="none"
       xlink:href="../desain/cucibos/mukena-sajadah-gratis/ig.png"
       id="image7097"
       x="0"
       y="-7.1054274e-15" />
    <text
       xml:space="preserve"
       style="font-style:normal;font-weight:normal;font-size:10.6731px;line-height:1.25;font-family:sans-serif;fill:#01b683;fill-opacity:1;stroke:none;stroke-width:0.265378"
       x="22.59635"
       y="15.852436"
       id="text3848-3"
       transform="scale(0.98444557,1.0158002)"><tspan
         sodipodi:role="line"
         id="tspan3846-9"
         style="font-style:normal;font-variant:normal;font-weight:normal;font-stretch:normal;font-size:10.6731px;font-family:'Baloo Tamma 2';-inkscape-font-specification:'Baloo Tamma 2, ';fill:#01b683;fill-opacity:1;stroke-width:0.265378"
         x="22.59635"
         y="15.852436"><tspan
   style="fill:#000000"
   id="tspan6513">085655668770</tspan> (Febri)</tspan></text>
    <path
       id="path6"
       class="st0"
       d="m 14.819942,7.57049 c -3.089173,0 -5.5943024,2.50513 -5.5943024,5.59431 0,3.08916 2.5051294,5.5943 5.5943024,5.5943 3.089174,0 5.594304,-2.50514 5.594304,-5.5943 0,-3.08918 -2.50513,-5.59431 -5.594304,-5.59431 z m 0.01568,1.91103 c 0.983476,7e-4 1.907657,0.38375 2.601349,1.07855 0.694813,0.69482 1.076341,1.619 1.075222,2.60136 -0.0011,2.02737 -1.650315,3.67659 -3.676571,3.67659 h -0.0011 c -0.615372,0 -1.219559,-0.15439 -1.75661,-0.44754 l -1.949071,0.51132 0.521387,-1.90544 c -0.322234,-0.55719 -0.491163,-1.19046 -0.491163,-1.83827 0,-2.02738 1.650313,-3.67657 3.676572,-3.67657 z m 0.0022,0.62097 c -1.686123,0 -3.056714,1.3706 -3.057834,3.0556 0,0.57845 0.162224,1.14011 0.467673,1.62682 l 0.07272,0.11522 -0.308801,1.12784 1.156904,-0.30322 0.111886,0.066 c 0.468802,0.2786 1.006975,0.42631 1.555219,0.42631 h 0.0011 c 1.683884,0 3.055604,-1.37064 3.055604,-3.05675 0.0011,-0.81565 -0.316643,-1.5843 -0.893974,-2.16162 -0.577333,-0.57735 -1.343749,-0.89622 -2.160517,-0.89622 z m -1.303471,1.35604 c 0.06042,0 0.121967,0.002 0.175672,0.004 0.05706,0.004 0.132027,-0.0212 0.20699,0.15777 0.07609,0.1846 0.259563,0.63662 0.283059,0.68249 0.0235,0.0458 0.03805,0.0996 0.0078,0.16112 -0.03021,0.0616 -0.04589,0.0996 -0.09175,0.15327 -0.04588,0.0537 -0.09621,0.11974 -0.137608,0.16113 -0.04588,0.0458 -0.094,0.0962 -0.04029,0.18796 0.05371,0.0918 0.23833,0.39271 0.511332,0.63663 0.350205,0.31328 0.646701,0.41063 0.738449,0.4565 0.09175,0.0458 0.145438,0.0381 0.199144,-0.0235 0.0537,-0.0616 0.229366,-0.26855 0.290903,-0.36028 0.06154,-0.0918 0.123077,-0.0761 0.206989,-0.0458 0.08392,0.0302 0.535953,0.25286 0.627698,0.29872 0.09175,0.047 0.153275,0.0694 0.175655,0.10743 0.02238,0.0381 0.02236,0.22154 -0.05371,0.43636 -0.07609,0.21371 -0.443052,0.4095 -0.619832,0.43635 -0.157758,0.0235 -0.358049,0.0335 -0.578463,-0.0369 -0.133146,-0.0425 -0.304318,-0.0985 -0.523615,-0.19357 -0.921941,-0.39832 -1.523895,-1.32585 -1.569769,-1.3874 -0.04588,-0.0604 -0.37482,-0.49786 -0.37482,-0.94988 0,-0.45202 0.237191,-0.67469 0.321106,-0.76643 0.08391,-0.0917 0.183497,-0.11526 0.245035,-0.11526 z"
       style="fill:#01b683;fill-opacity:1;stroke-width:0.0111886" />
  </g>
</svg>
