<?xml version="1.0" encoding="UTF-8" standalone="no"?>
<!-- Created with Inkscape (http://www.inkscape.org/) -->

<svg
   width="1080"
   height="1920"
   viewBox="0 0 285.74999 508.00002"
   version="1.1"
   id="svg1541"
   inkscape:version="1.1.1 (3bf5ae0d25, 2021-09-20)"
   sodipodi:docname="wa.svg"
   xmlns:inkscape="http://www.inkscape.org/namespaces/inkscape"
   xmlns:sodipodi="http://sodipodi.sourceforge.net/DTD/sodipodi-0.dtd"
   xmlns:xlink="http://www.w3.org/1999/xlink"
   xmlns="http://www.w3.org/2000/svg"
   xmlns:svg="http://www.w3.org/2000/svg">
  <sodipodi:namedview
     id="namedview1543"
     pagecolor="#ffffff"
     bordercolor="#666666"
     borderopacity="1.0"
     inkscape:pageshadow="2"
     inkscape:pageopacity="0.0"
     inkscape:pagecheckerboard="0"
     inkscape:document-units="px"
     showgrid="false"
     inkscape:zoom="0.31937359"
     inkscape:cx="524.46416"
     inkscape:cy="1585.917"
     inkscape:window-width="1360"
     inkscape:window-height="705"
     inkscape:window-x="-8"
     inkscape:window-y="-8"
     inkscape:window-maximized="1"
     inkscape:current-layer="layer1"
     units="px"
     width="1080px"
     height="1920px" />
  <defs
     id="defs1538" />
  <g
     inkscape:label="Layer 1"
     inkscape:groupmode="layer"
     id="layer1">
    <image
       width="285.75"
       height="508"
       preserveAspectRatio="none"
       xlink:href="../desain/cucibos/mukena-sajadah-gratis/wa.png"
       id="image7207"
       x="0"
       y="7.1054274e-15" />
    <text
       xml:space="preserve"
       style="font-style:normal;font-weight:normal;font-size:14.5623px;line-height:1.25;font-family:sans-serif;fill:#01b683;fill-opacity:1;stroke:none;stroke-width:0.36208"
       x="31.248631"
       y="487.78699"
       id="text3848-3"
       transform="scale(0.98444557,1.0158002)"
       inkscape:transform-center-x="116.19751"
       inkscape:transform-center-y="-222.67416"><tspan
         sodipodi:role="line"
         id="tspan3846-9"
         style="font-style:normal;font-variant:normal;font-weight:normal;font-stretch:normal;font-size:14.5623px;font-family:'Baloo Tamma 2';-inkscape-font-specification:'Baloo Tamma 2, ';fill:#01b683;fill-opacity:1;stroke-width:0.36208"
         x="31.248631"
         y="487.78699"><tspan
   style="fill:#000000;stroke-width:0.36208"
   id="tspan6513">085655668770</tspan> (Febri)</tspan></text>
    <path
       id="path6"
       class="st0"
       d="m 20.632035,483.85255 c -4.214853,0 -7.632838,3.41798 -7.632838,7.63285 0,4.21483 3.417985,7.63283 7.632838,7.63283 4.214853,0 7.63284,-3.418 7.63284,-7.63283 0,-4.21487 -3.417987,-7.63285 -7.63284,-7.63285 z m 0.02139,2.6074 c 1.34185,9.5e-4 2.602798,0.52358 3.549268,1.47156 0.947999,0.94801 1.468554,2.20896 1.467027,3.54929 -0.0015,2.76613 -2.251681,5.01632 -5.016295,5.01632 h -0.0015 c -0.83961,0 -1.66396,-0.21065 -2.396709,-0.61062 l -2.659303,0.69764 0.711378,-2.59977 c -0.439655,-0.76023 -0.670141,-1.62426 -0.670141,-2.50813 0,-2.76615 2.251679,-5.01629 5.016297,-5.01629 z m 0.003,0.84724 c -2.300538,0 -4.170565,1.87004 -4.172093,4.16905 0,0.78923 0.221337,1.55556 0.63809,2.21963 l 0.09922,0.1572 -0.421326,1.53882 1.578474,-0.41371 0.152656,0.0901 c 0.639631,0.38012 1.373912,0.58165 2.121933,0.58165 h 0.0015 c 2.297483,0 4.169051,-1.87009 4.169051,-4.17061 0.0015,-1.11287 -0.432026,-2.16161 -1.219734,-2.9493 -0.78771,-0.78774 -1.833404,-1.2228 -2.947798,-1.2228 z m -1.778449,1.85018 c 0.08244,0 0.166411,0.003 0.239686,0.005 0.07785,0.005 0.180137,-0.0289 0.282416,0.21526 0.103817,0.25186 0.354146,0.8686 0.386204,0.93118 0.03206,0.0625 0.05192,0.1359 0.01064,0.21983 -0.04122,0.084 -0.06261,0.1359 -0.125183,0.20913 -0.0626,0.0733 -0.131268,0.16337 -0.187752,0.21984 -0.0626,0.0625 -0.128253,0.13125 -0.05497,0.25645 0.07328,0.12525 0.325176,0.53581 0.697659,0.86862 0.477818,0.42743 0.882355,0.56026 1.007536,0.62284 0.125183,0.0625 0.198435,0.052 0.271711,-0.0321 0.07327,-0.084 0.312946,-0.36641 0.396906,-0.49156 0.08396,-0.12526 0.167926,-0.10384 0.282415,-0.0625 0.1145,0.0412 0.731252,0.345 0.856428,0.40757 0.125183,0.0641 0.209128,0.0947 0.239663,0.14658 0.03054,0.052 0.03051,0.30226 -0.07328,0.59536 -0.103816,0.29159 -0.604498,0.55872 -0.845695,0.59536 -0.215245,0.0321 -0.488521,0.0457 -0.789252,-0.0503 -0.181664,-0.058 -0.41521,-0.13439 -0.714418,-0.26411 -1.257892,-0.54346 -2.079195,-1.80898 -2.141785,-1.89296 -0.0626,-0.0824 -0.511402,-0.67928 -0.511402,-1.29601 0,-0.61673 0.323622,-0.92054 0.438115,-1.04571 0.114486,-0.12512 0.250362,-0.15726 0.334325,-0.15726 z"
       style="fill:#01b683;fill-opacity:1;stroke-width:0.0152657"
       inkscape:transform-center-x="193.50534"
       inkscape:transform-center-y="-222.67417" />
  </g>
</svg>
